<?xml version="1.0" encoding="UTF-8" ?>
<!DOCTYPE svg PUBLIC "-//W3C//DTD SVG 1.1//EN" "http://www.w3.org/Graphics/SVG/1.1/DTD/svg11.dtd">
<svg width="1920pt" height="1080pt" viewBox="0 0 1920 1080" version="1.1" xmlns="http://www.w3.org/2000/svg">
  <g
     id="#ff0000ff">
    <path
       opacity="0.00" fill-opacity="0"
       
       d=" M 316.77 104.10 C 317.76 103.65 318.75 103.20 319.76 102.76 C 324.03 105.54 328.27 108.62 333.05 110.45 C 336.25 109.60 339.49 107.79 342.89 108.66 C 349.80 109.92 353.81 116.37 360.00 119.11 C 360.30 120.88 360.61 122.65 360.93 124.42 C 364.29 125.24 367.72 125.85 370.93 127.23 C 371.50 128.87 372.11 130.50 372.87 132.07 C 372.70 129.80 372.40 127.55 372.10 125.30 C 379.35 125.51 386.17 128.27 393.37 128.74 C 394.83 127.58 396.34 126.49 397.88 125.44 C 398.34 126.68 398.79 127.92 399.25 129.16 C 401.53 128.83 403.80 128.39 405.99 127.63 C 408.87 128.76 411.03 134.13 414.32 131.29 C 415.40 129.41 416.32 127.43 417.54 125.63 C 417.67 122.86 416.13 118.84 419.87 118.05 C 421.84 120.78 425.15 121.90 427.93 123.59 C 428.83 122.96 429.74 122.34 430.65 121.72 C 430.58 119.57 430.53 117.43 430.53 115.28 C 431.21 114.84 432.59 113.96 433.27 113.52 C 435.09 115.15 436.35 118.48 439.36 117.27 C 441.27 124.78 439.91 132.70 440.55 140.38 C 441.87 141.34 443.42 142.13 444.37 143.51 C 444.99 147.57 444.53 151.71 444.65 155.80 C 449.96 153.67 455.62 152.50 460.35 149.10 C 460.93 149.49 462.10 150.28 462.69 150.67 C 462.31 159.68 462.10 168.69 461.73 177.70 C 466.08 177.10 470.42 176.24 474.52 174.62 C 474.45 176.79 474.37 178.97 474.28 181.14 C 475.62 182.69 476.81 184.38 478.37 185.73 C 480.24 187.10 482.57 186.07 484.61 185.76 C 484.93 181.86 485.29 177.97 485.63 174.08 C 486.10 174.11 487.03 174.18 487.49 174.21 C 493.22 184.28 499.21 194.35 507.18 202.84 C 510.70 206.68 514.66 210.15 517.65 214.45 C 526.91 227.05 537.03 239.44 550.32 247.98 C 550.73 247.77 551.54 247.36 551.94 247.15 C 552.95 247.82 553.96 248.48 554.99 249.15 C 559.06 248.88 563.44 249.27 567.10 247.07 C 570.47 244.97 574.50 244.66 578.14 243.22 C 580.07 242.54 582.15 243.08 584.14 243.15 C 586.36 238.51 586.59 232.17 591.80 229.71 C 593.31 225.96 594.29 221.75 597.63 219.12 C 599.51 219.40 601.23 220.23 602.77 221.35 C 602.08 222.98 601.41 224.62 600.72 226.26 C 604.96 232.66 612.59 235.46 619.76 237.07 C 620.48 236.85 621.93 236.41 622.66 236.19 C 624.81 232.16 626.10 227.61 628.95 224.00 C 635.54 218.95 644.05 218.26 652.03 217.61 C 655.70 217.52 659.53 218.28 663.01 216.71 C 665.94 219.43 669.36 221.51 673.42 221.95 C 673.94 221.43 674.99 220.37 675.51 219.84 C 677.17 219.85 678.83 219.86 680.50 219.88 C 682.29 221.98 684.27 224.30 687.09 224.95 C 689.86 225.73 690.39 221.46 692.98 221.79 C 695.93 221.69 696.30 225.44 697.73 227.29 C 699.64 228.97 701.66 230.56 703.14 232.67 C 699.21 238.39 695.36 244.17 691.46 249.91 C 693.82 252.50 696.78 254.46 699.18 257.01 C 694.04 265.29 687.92 272.97 682.35 280.99 C 683.38 281.69 684.42 282.39 685.47 283.09 C 685.39 285.06 685.00 287.04 683.69 288.59 C 672.91 303.22 662.17 317.87 651.40 332.50 C 649.86 334.54 648.54 336.79 646.68 338.57 C 644.12 340.18 641.27 341.25 638.63 342.72 C 635.45 342.67 632.25 342.63 629.13 343.26 C 626.64 343.74 625.02 345.86 622.90 347.04 C 615.28 347.35 607.69 344.07 600.10 345.70 C 598.50 347.88 596.51 349.72 594.09 350.96 C 593.53 350.62 592.40 349.95 591.83 349.61 C 588.72 350.65 585.71 351.93 582.74 353.28 C 582.94 351.15 581.70 350.03 579.72 349.63 C 579.92 349.03 580.32 347.84 580.51 347.24 C 575.52 342.44 569.88 338.13 563.39 335.58 C 558.55 333.48 553.42 331.05 548.00 331.78 C 544.84 332.55 542.24 334.61 539.47 336.20 C 536.46 344.69 534.03 353.42 530.49 361.71 C 529.14 361.08 527.81 360.45 526.48 359.82 C 523.33 358.21 519.87 358.35 516.50 359.06 C 515.84 361.44 515.08 363.79 514.27 366.13 C 510.96 367.06 507.07 367.17 504.31 369.36 C 502.02 374.10 503.07 380.84 497.65 383.67 C 497.32 384.14 496.66 385.07 496.33 385.54 C 494.82 385.12 493.33 384.69 491.83 384.25 C 491.85 383.55 491.89 382.16 491.91 381.46 C 488.47 379.82 484.63 379.38 481.10 377.97 C 478.22 379.46 475.38 381.88 471.93 381.10 C 467.06 382.13 461.99 381.25 457.20 382.81 C 453.04 383.17 450.52 387.47 446.21 387.36 C 443.58 388.88 441.02 390.53 438.51 392.24 C 436.44 392.58 434.60 393.50 433.31 395.17 C 425.50 397.19 419.71 404.50 418.21 412.26 C 417.78 412.52 416.92 413.04 416.49 413.29 C 415.93 415.62 416.17 418.74 413.43 419.71 C 412.83 422.41 412.69 425.19 412.48 427.95 C 411.46 427.20 410.45 426.46 409.43 425.73 C 407.90 426.85 406.27 427.80 404.57 428.63 C 404.23 430.11 403.88 431.59 403.52 433.08 C 400.45 433.50 397.13 433.69 394.48 435.45 C 391.53 438.02 390.53 441.98 389.45 445.57 C 385.80 446.12 380.89 445.81 379.04 449.73 C 378.11 449.52 377.19 449.32 376.28 449.11 C 375.05 449.60 373.84 450.09 372.62 450.58 C 372.33 451.14 371.74 452.25 371.45 452.80 C 366.75 452.04 362.29 450.16 357.47 450.06 C 355.94 450.79 354.35 451.40 352.69 451.75 C 351.51 452.31 350.34 452.88 349.18 453.45 C 342.85 443.47 336.58 433.45 330.33 423.43 C 329.39 422.44 329.61 420.72 330.89 420.14 C 336.61 416.44 343.27 414.69 349.62 412.43 C 348.19 408.36 346.36 404.44 344.86 400.39 C 341.99 398.99 341.63 395.80 341.15 393.00 C 340.93 393.47 340.48 394.40 340.25 394.86 C 336.88 396.18 333.36 397.48 331.08 400.47 C 327.77 398.03 324.14 395.83 319.84 396.22 C 320.02 395.65 320.36 394.50 320.53 393.92 C 320.15 392.57 319.80 391.22 319.48 389.86 C 318.20 390.35 316.93 390.84 315.65 391.32 C 315.17 390.12 314.70 388.93 314.24 387.75 C 314.55 387.31 315.17 386.44 315.48 386.01 C 315.08 385.49 314.27 384.45 313.86 383.92 C 314.97 382.57 316.08 381.21 317.18 379.85 C 318.92 380.10 320.68 380.27 322.44 380.44 C 322.86 381.09 323.71 382.39 324.13 383.05 C 324.42 381.38 324.70 379.73 325.00 378.07 C 326.25 373.80 327.42 369.50 329.25 365.44 C 326.51 364.21 323.83 362.83 321.59 360.81 C 318.91 360.77 316.24 360.79 313.56 360.80 C 311.72 361.00 309.89 361.31 308.08 361.70 C 308.23 358.93 308.17 356.14 307.70 353.41 C 310.67 352.64 313.66 351.90 316.58 350.95 C 316.64 350.29 316.78 348.99 316.85 348.34 C 314.73 346.31 311.96 345.34 309.13 344.86 C 308.44 344.20 307.76 343.55 307.08 342.90 C 306.43 342.83 305.14 342.69 304.49 342.62 C 303.79 340.00 303.04 337.40 302.26 334.81 C 302.97 334.51 304.38 333.90 305.08 333.60 C 305.71 331.67 306.28 329.71 306.84 327.76 C 306.15 328.06 304.77 328.65 304.08 328.95 C 303.34 328.62 301.86 327.95 301.11 327.62 C 300.48 329.99 298.59 331.28 296.40 332.03 C 294.21 329.11 291.47 326.22 287.45 326.67 C 286.04 325.72 284.64 324.79 283.22 323.88 C 281.15 321.87 278.75 320.14 277.24 317.63 C 275.11 314.07 271.13 312.42 268.17 309.69 C 265.05 306.67 260.78 305.35 257.53 302.48 C 251.13 301.41 244.64 302.19 238.20 302.23 C 233.88 303.95 230.19 306.68 226.61 309.55 C 222.96 310.06 219.50 307.55 215.96 306.77 C 213.51 306.45 211.00 306.18 208.70 305.23 C 207.10 304.18 206.07 302.49 204.87 301.05 C 190.66 282.89 176.43 264.75 162.19 246.62 C 162.67 246.17 163.63 245.27 164.11 244.82 C 162.86 243.22 161.61 241.61 160.36 240.00 C 162.57 234.47 168.59 232.59 171.88 227.93 C 175.10 225.73 178.49 223.60 182.05 221.94 C 185.34 218.51 190.46 218.65 194.22 216.01 C 198.89 212.97 204.26 210.50 209.97 211.17 C 213.52 211.31 210.07 207.35 209.53 205.82 C 212.50 204.10 215.65 202.53 217.92 199.88 C 221.19 196.13 226.19 194.96 230.22 192.29 C 232.46 190.83 234.80 189.52 237.22 188.37 C 241.23 188.25 243.70 184.72 247.37 183.68 C 249.98 182.88 252.42 181.66 254.82 180.38 C 256.08 176.35 255.71 171.79 258.25 168.23 C 259.43 170.63 260.53 173.06 261.56 175.52 C 263.34 175.86 265.21 176.66 267.01 175.98 C 272.86 173.93 279.07 172.55 284.05 168.63 C 284.14 168.14 284.32 167.18 284.42 166.70 C 288.66 165.83 290.52 159.73 295.25 161.11 C 295.73 161.02 296.69 160.83 297.17 160.74 C 297.79 159.45 298.60 158.28 299.67 157.33 C 300.12 158.46 300.56 159.60 301.00 160.74 C 303.08 160.07 305.47 159.04 306.14 162.09 C 306.84 157.64 310.61 155.14 313.89 152.59 C 315.54 154.04 317.24 155.44 319.09 156.64 C 318.13 152.29 316.77 148.03 315.57 143.74 C 315.88 143.25 316.51 142.27 316.83 141.78 C 314.96 136.65 314.35 131.18 315.09 125.77 C 315.50 125.48 316.30 124.89 316.71 124.60 C 316.00 122.15 315.33 119.69 314.68 117.23 C 315.25 116.82 316.38 116.01 316.95 115.60 C 317.39 111.78 317.79 107.87 316.77 104.10 Z"
       id="path8" />
  </g>
  <g
     id="#00ff00ff">
    <path
       opacity="0.00" fill-opacity="0"
       
       d=" M 298.85 335.72 C 299.98 335.40 301.12 335.10 302.26 334.81 C 303.04 337.40 303.79 340.00 304.49 342.62 C 305.14 342.69 306.43 342.83 307.08 342.90 C 307.76 343.55 308.44 344.20 309.13 344.86 C 311.96 345.34 314.73 346.31 316.85 348.34 C 316.78 348.99 316.64 350.29 316.58 350.95 C 313.66 351.90 310.67 352.64 307.70 353.41 C 308.17 356.14 308.23 358.93 308.08 361.70 C 309.89 361.31 311.72 361.00 313.56 360.80 C 316.24 360.79 318.91 360.77 321.59 360.81 C 323.83 362.83 326.51 364.21 329.25 365.44 C 327.42 369.50 326.25 373.80 325.00 378.07 C 324.70 379.73 324.42 381.38 324.13 383.05 C 323.71 382.39 322.86 381.09 322.44 380.44 C 320.68 380.27 318.92 380.10 317.18 379.85 C 316.08 381.21 314.97 382.57 313.86 383.92 C 314.27 384.45 315.08 385.49 315.48 386.01 C 315.17 386.44 314.55 387.31 314.24 387.75 C 314.70 388.93 315.17 390.12 315.65 391.32 C 316.93 390.84 318.20 390.35 319.48 389.86 C 319.80 391.22 320.15 392.57 320.53 393.92 C 320.36 394.50 320.02 395.65 319.84 396.22 C 324.14 395.83 327.77 398.03 331.08 400.47 C 333.36 397.48 336.88 396.18 340.25 394.86 C 340.48 394.40 340.93 393.47 341.15 393.00 C 341.63 395.80 341.99 398.99 344.86 400.39 C 346.36 404.44 348.19 408.36 349.62 412.43 C 343.27 414.69 336.61 416.44 330.89 420.14 C 329.61 420.72 329.39 422.44 330.33 423.43 C 336.58 433.45 342.85 443.47 349.18 453.45 C 347.13 453.28 345.08 453.29 343.04 453.12 C 341.71 451.76 340.69 450.13 339.57 448.61 C 337.30 448.44 334.77 448.62 333.01 446.89 C 329.88 443.96 327.94 440.04 325.28 436.72 C 322.64 436.83 320.00 436.48 317.86 434.83 C 317.10 434.77 315.59 434.65 314.84 434.58 C 314.51 434.91 313.85 435.56 313.52 435.89 C 310.76 431.87 307.44 428.38 303.60 425.41 C 294.96 414.71 286.73 403.67 278.15 392.92 C 275.81 390.11 274.47 386.66 272.31 383.73 C 273.42 383.43 274.53 383.13 275.64 382.82 C 276.49 383.52 277.35 384.24 278.20 384.95 C 278.90 383.01 279.69 381.12 280.57 379.27 C 281.79 379.30 283.01 379.28 284.23 379.25 C 284.59 379.43 285.32 379.79 285.68 379.97 C 286.02 376.95 288.68 376.79 291.14 376.99 C 290.06 373.53 293.12 371.95 295.63 370.57 C 297.45 361.80 297.03 352.68 296.01 343.83 C 297.23 342.68 298.45 341.53 299.68 340.38 C 299.40 338.82 299.12 337.27 298.85 335.72 Z"
       id="path11" />
  </g>
</svg>
